<?xml version="1.0" standalone="no"?>
<!DOCTYPE svg PUBLIC "-//W3C//DTD SVG 20010904//EN"
 "http://www.w3.org/TR/2001/REC-SVG-20010904/DTD/svg10.dtd">
<svg version="1.0" xmlns="http://www.w3.org/2000/svg"
 width="240.000000pt" height="94.000000pt" viewBox="0 0 240.000000 94.000000"
 preserveAspectRatio="xMidYMid meet">

<g transform="translate(0.000000,94.000000) scale(0.100000,-0.100000)"
fill="#000000" stroke="none">
<path d="M895 783 c-31 -3 -55 -10 -62 -20 -17 -22 -18 -194 -1 -211 16 -16
220 -16 236 0 19 19 16 188 -4 216 -16 23 -34 25 -169 15z m71 -33 l74 0 0
-90 0 -90 -89 0 c-62 0 -90 4 -93 13 -8 20 -10 156 -3 168 4 6 14 8 22 5 8 -3
48 -6 89 -6z"/>
<path d="M1417 643 c-4 -3 -7 -118 -7 -255 l0 -248 35 0 35 0 0 50 c0 28 4 50
9 50 5 0 29 -22 54 -50 42 -47 48 -50 93 -50 l49 0 -78 78 -78 79 76 89 76 89
-38 3 c-35 3 -41 -1 -100 -65 l-62 -68 -1 153 0 152 -28 0 c-16 0 -32 -3 -35
-7z"/>
<path d="M1278 619 c-18 -10 -24 -45 -10 -65 13 -19 39 -23 61 -8 27 20 27 49
-1 68 -26 19 -27 19 -50 5z"/>
<path d="M2146 614 c-22 -22 -20 -50 6 -68 19 -13 25 -14 43 -2 26 17 31 49
10 70 -21 20 -39 20 -59 0z"/>
<path d="M297 466 c-90 -33 -117 -85 -117 -226 l0 -100 30 0 30 0 0 85 c0 132
32 185 113 185 29 0 46 -7 68 -29 28 -29 29 -32 29 -135 l0 -106 35 0 35 0 0
95 c0 105 11 140 51 161 44 22 85 17 121 -15 33 -29 33 -30 36 -135 l4 -106
29 0 29 0 0 105 c0 115 -8 141 -57 187 -61 57 -156 58 -221 3 -27 -22 -31 -23
-43 -9 -34 42 -116 60 -172 40z"/>
<path d="M977 465 c-106 -37 -145 -155 -85 -253 34 -55 81 -72 203 -72 l105 0
0 29 0 29 -105 4 c-98 3 -106 5 -132 30 -15 15 -24 31 -19 35 4 4 63 7 131 8
l125 0 0 33 c0 73 -54 141 -128 162 -46 12 -48 12 -95 -5z m111 -71 c12 -8 27
-24 32 -35 10 -18 7 -19 -85 -19 -78 0 -95 3 -95 15 0 21 59 55 95 55 17 0 41
-7 53 -16z"/>
<path d="M1270 311 l0 -171 35 0 35 0 -2 168 -3 167 -32 3 -33 3 0 -170z"/>
<path d="M1846 465 c-109 -39 -151 -169 -83 -259 41 -53 80 -66 201 -66 l106
0 0 98 c-1 139 -30 197 -117 228 -47 16 -59 16 -107 -1z m123 -84 c29 -28 31
-33 31 -105 l0 -76 -56 0 c-72 0 -118 22 -139 66 -48 101 82 192 164 115z"/>
<path d="M2147 473 c-4 -3 -7 -80 -7 -170 l0 -163 35 0 35 0 0 170 0 170 -28
0 c-16 0 -32 -3 -35 -7z"/>
</g>
</svg>
